<svg xmlns="http://www.w3.org/2000/svg" viewBox="0 0 298.19 210.99"><defs><style>.cls-1{fill:#121427;}</style></defs><g id="Capa_3" data-name="Capa 3"><path class="cls-1" d="M20.32,104.58a8.45,8.45,0,0,0-5,5.22c-4.67,13.94-19.61,61.94-6.33,69,15.58,8.24,23.7,13.79,21.47-1.3S16.69,136.13,26,143.93c6,5,6.71,8.95,14.82-1.11s10.34,10.06-3.64,35.77c0,0-8.92,12.61,13.56,18.6S75.17,206,74.05,183.9,71.82,132,66.23,101.77c0,0-1.13-9.36-5.73-8.76s-16.07.62-18.87,7.61-6.42,17.88-6.42,17.88S32.86,100,29,101.32C26.82,102.1,23.11,103.51,20.32,104.58Z"/><path class="cls-1" d="M111.26,163.09c.06,3.47-2.11,3-3.3,2.76-8.42-2-9.16,2.84-9.16,8.55,0,6.7,0,10.8,11.74,8.94,13.47-2.14,46.39-10.9,46.39-10.9s9.78-5.59,12,1.68,15.73,32,2.41,33.3-60.84,1.49-75-.34c-21.33-2.74-15.4-2.79-16.52-24.87s-2.24-51.9-7.82-82.12c-.26-3.29-2.13-10.56,12.12-10.51,0,0,46-4.33,44.3,9.08S124,128.29,124,128.29s-1.12,8.38-9.78,7S97.82,129.31,98,140c.15,11.23,4.82,7.39,10.75,7.2a2.47,2.47,0,0,1,2.55,2.54Z"/><path class="cls-1" d="M133.28,97.34l-2.42,18.13a3.69,3.69,0,0,0,3.8,4.17l11.35-.45c1.06,0,3.4.07,1.37,2.82l-28.23,20c-3.11,2.58-2.76,6.26-3.28,10.27l-.42,17a5.54,5.54,0,0,0,6.81,6.09l38.57-10a5.73,5.73,0,0,0,4.24-6.78l-2.13-10a5,5,0,0,0-6.46-3.68l-7.46,2.5a1.48,1.48,0,0,1-1.68-2.24l14.34-20.73a12.56,12.56,0,0,0,2.15-5.62l1.89-15.12a4.69,4.69,0,0,0-3.56-5.15l-22.78-5.53A5,5,0,0,0,133.28,97.34Z"/><path class="cls-1" d="M214.57,140.31v.11c-.09,2-.21,4-.33,6.11v0c-.63,5.6-2.45,5.45-9.76,5.3-9.37-.19-6.33-6.7-6.33-10.53s.56-5.12-4.47-6-4.48,4.29-4.48,4.29-.74,24,5.6,25c0,0,1.86.37,2.6-2.05s2-3.17,7.45-1.86,8.22,1.6,7.37,8.78c-.95,8.4-2.19,17.51-3.8,27.31a6.14,6.14,0,0,1-4.6,5q-5.69,1.38-11.57,2.56a6.82,6.82,0,0,1-7.49-3.79c-20.54-43.1-17.6-78.92-13.17-92.62a7.22,7.22,0,0,1,8.17-4.84c10,1.85,19,3.19,27.09,4.08a9,9,0,0,1,8,8.74C215.06,122.32,215,130.52,214.57,140.31Z"/><path class="cls-1" d="M273.18,171c-14.58,10.62-32.65,19.51-53.19,26.07a4.13,4.13,0,0,1-5.32-4.72c5.1-25.52,5.48-64.05,5.43-78.67a5.35,5.35,0,0,1,5.48-5.36,147.41,147.41,0,0,0,18.72-.68,5.31,5.31,0,0,1,5.82,6c-1.46,11.41-4.92,32.27-12.11,50.12a2.81,2.81,0,0,0,2.92,3.84c4.81-.53,13.52-2.51,26.58-9.16a3.45,3.45,0,0,1,4.88,2.07l2,6.73A3.45,3.45,0,0,1,273.18,171Z"/><path class="cls-1" d="M294.29,148.14c-4.21-10.94-13.21-32.8-21.71-44a4,4,0,0,0-4.36-1.4c-2.91.89-5.82,1.68-8.78,2.35a4,4,0,0,0-2.19,1.35,4.08,4.08,0,0,0-.94,2.37c-1.47,11.42-4.33,32.45-11.52,50.29-.8,2,.57,2.8,2.68,2.56l14.76-6.43a5.57,5.57,0,0,0,3.89-4.26,46.23,46.23,0,0,0,1.43-8.48s.56-3.9,1.68,0c.6,2.13,4.28,11,7.5,18.68a4.24,4.24,0,0,0,6.74,1.51,106.88,106.88,0,0,0,10.07-10.28A4.22,4.22,0,0,0,294.29,148.14Zm-21.44-18a14.64,14.64,0,0,1-4,2.43,3.16,3.16,0,0,1-4.39-3.29,37.75,37.75,0,0,0,.18-5.65v-.13a3.14,3.14,0,0,1,5.53-2C272.11,123.72,275.15,128,272.85,130.1Z"/><path class="cls-1" d="M108.3,3.83A275.87,275.87,0,0,0,77.05,8.49,8.38,8.38,0,0,0,70.35,17c.45,11.66,2.87,33.18,13.09,61.32a8.35,8.35,0,0,0,7.84,5.52q4,0,8,.15a8.32,8.32,0,0,0,8.12-5.41c3.62-9.69,8.93-29.83,10-66.2A8.36,8.36,0,0,0,108.3,3.83Zm-4.92,19.89-3,22.93a2.78,2.78,0,0,1-1.92,2.29l-3,.92a2.76,2.76,0,0,1-3.56-2.32L89.47,27A4.48,4.48,0,0,1,93,22.07l7-1.42A2.77,2.77,0,0,1,103.38,23.72Z"/><path class="cls-1" d="M150.85,92.06a5.9,5.9,0,0,1-4.75-6c.17-3.76,2.66-9.34,8.82-18.45C168.34,47.77,169.16,40.68,166.67,40c-4.69-1.23-6.19,6.71-15.54,15.33a2.61,2.61,0,0,1-3.25-.26l-7.73-10.35c-.86-1.14-4.61-2.64-3.66,1.66,1.3,5.82,3.29,15.63,5.21,27.16A36,36,0,0,1,142.13,85,5,5,0,0,1,136,89h0q-9-2.11-17.76-3.32a5,5,0,0,1-4-6.79C118,69,123.69,47.44,124.4,7.62a5.08,5.08,0,0,1,5-5q3.27-.07,6.59-.07l4,0a5.08,5.08,0,0,1,4.63,3.23l5.61,14.45a2,2,0,0,0,3.67-.1l4.27-12.9a5.06,5.06,0,0,1,5.29-3.45q5.58.51,11,1.23a5,5,0,0,1,4.17,3.6c8.47,29.13,11.64,68.35,12.66,85.12a5,5,0,0,1-5.82,5.3Z"/><path class="cls-1" d="M221.55,15.34a251.29,251.29,0,0,0-30-7.66,4.68,4.68,0,0,0-5.44,5.77,386.92,386.92,0,0,1,8.51,46.07,4.62,4.62,0,0,0,2.85,3.75,98.94,98.94,0,0,0,14.66,4.55,4.69,4.69,0,0,0,5.54-3c5.18-14.87,6.49-33.92,7.14-44.69A4.7,4.7,0,0,0,221.55,15.34Zm-9.5,13.58-2.46,9.85a2.51,2.51,0,0,1-2.45,1.91h-2.28a2.51,2.51,0,0,1-2.47-2l-2.22-11.71a2.51,2.51,0,0,1,3.12-2.9l7,1.86A2.51,2.51,0,0,1,212.05,28.92Z"/><path class="cls-1" d="M63.84,85.82a211.23,211.23,0,0,0-30.48,6.72,8.77,8.77,0,0,1-11.28-7.49c-.36-3.6-.67-6.91-.73-8.5-.19-4.48-.19-14.72,13.22-9.32s14.17-2.3,14.17-2.3S51.53,46,35.5,52.51s-20.67-3.17-20.67-3.17c-2.2-3.42-1.76-7.48-.17-11.39A26,26,0,0,1,28,24.25a219.78,219.78,0,0,1,29.91-11,4.49,4.49,0,0,1,5.73,4.12c.12,2.8.34,6.13.76,10a5,5,0,0,1-5,5.57,12.7,12.7,0,0,1-7.3-2.56c-3.67-3-15.33-.93-16.26,6.15s7.45,5.21,7.45,5.21a106.41,106.41,0,0,1,16-1.13,8.79,8.79,0,0,1,8.41,6.9,231,231,0,0,0,6.06,22.32A12.35,12.35,0,0,1,63.84,85.82Z"/><path class="cls-1" d="M267.71,55.38c-4,1.83-7.48-.4-11.5-1.61,0,0-4.33-1.22-2.1-5.64,1.61-3.18-2.67-4-4.33-3.82-1.44.12-3.31.56-5.2,4.1-3.77,7.08,1.89,7.83,1.89,7.83s18.82,4,20.5,13.5a26.27,26.27,0,0,1-.64,7.18c-.2,1-.41,1.91-.63,2.83-.44,2-1,3.79-1.44,5.52-3.86,13.85-9.29,13.87-17.54,15.31-12.54,2.18-26.34,2.57-44,.76a6.6,6.6,0,0,1-5.92-6.18c-.31-5.32-.86-13.43-1.79-23a2.5,2.5,0,0,1,3.39-2.57c5.78,2.24,18.47,6.18,40.38,8.48,4.33.45,7.63-1.28,7.62-5.63v-.07c0-.84,0-1.64-.07-2.37a3.46,3.46,0,0,0-3.63-3.26l-14.57.33a3.83,3.83,0,0,1-3.9-4.83c3.95-14.33,5.23-30.41,5.64-39.42a3.11,3.11,0,0,1,4.25-2.74,182.5,182.5,0,0,1,33.82,17.4c4.63,3.07,6.83,5.22,2.95,14a8.41,8.41,0,0,1-1.65,2.65A3.9,3.9,0,0,1,267.71,55.38Z"/></g></svg>